<svg width="1584" height="396" viewBox="0 0 1584 396" fill="none" xmlns="http://www.w3.org/2000/svg">
<rect width="1584" height="396" fill="#F5F5F5"/>
<g id="Awesome banner" clip-path="url(#clip0_0_1)">
<rect width="1584" height="396" fill="url(#paint0_linear_0_1)"/>
<ellipse id="Ellipse 2" cx="323" cy="64" rx="285" ry="288" fill="url(#paint1_linear_0_1)" fill-opacity="0.1"/>
<g id="copyright">
<path d="M75.95 334.52L72.30 334.52L72.30 311.16L77.20 311.16L83.70 330.04Q83.60 329.02 83.50 327.62Q83.41 326.23 83.33 324.79Q83.25 323.35 83.25 322.23L83.25 311.16L86.90 311.16L86.90 334.52L82 334.52L75.57 315.64Q75.63 316.57 75.73 317.88Q75.82 319.19 75.89 320.57Q75.95 321.94 75.95 323.10L75.95 334.52M98.80 334.84Q96.46 334.84 94.67 333.96Q92.88 333.08 91.89 331.53Q90.90 329.98 90.90 327.93Q90.90 325.78 92.13 324.18Q93.36 322.58 95.34 322.17L95.34 322.10Q93.65 321.75 92.61 320.38Q91.57 319 91.57 317.11Q91.57 315.26 92.48 313.85Q93.39 312.44 95.02 311.64Q96.66 310.84 98.80 310.84Q100.94 310.84 102.59 311.64Q104.24 312.44 105.15 313.85Q106.06 315.26 106.06 317.11Q106.06 319 105.01 320.38Q103.95 321.75 102.26 322.10L102.26 322.17Q104.24 322.58 105.47 324.18Q106.70 325.78 106.70 327.93Q106.70 329.98 105.71 331.53Q104.72 333.08 102.93 333.96Q101.14 334.84 98.80 334.84M98.80 320.73Q100.30 320.73 101.23 319.82Q102.16 318.90 102.16 317.46Q102.16 315.99 101.23 315.08Q100.30 314.17 98.80 314.17Q97.30 314.17 96.37 315.08Q95.44 315.99 95.44 317.46Q95.44 318.90 96.37 319.82Q97.30 320.73 98.80 320.73M98.80 331.45Q100.56 331.45 101.68 330.42Q102.80 329.40 102.80 327.74Q102.80 326.04 101.68 325Q100.56 323.96 98.80 323.96Q97.04 323.96 95.92 325Q94.80 326.04 94.80 327.74Q94.80 329.40 95.92 330.42Q97.04 331.45 98.80 331.45M114.35 334.52L110.70 334.52L110.70 311.16L115.60 311.16L122.10 330.04Q122 329.02 121.90 327.62Q121.81 326.23 121.73 324.79Q121.65 323.35 121.65 322.23L121.65 311.16L125.30 311.16L125.30 334.52L120.40 334.52L113.97 315.64Q114.03 316.57 114.13 317.88Q114.22 319.19 114.29 320.57Q114.35 321.94 114.35 323.10" fill="white" fill-opacity="0.9"/>
<path d="M161.48 325.24L151.24 325.24L151.24 322.68L161.48 322.68" fill="white" fill-opacity="0.9"/>
<path d="M195.02 334.84Q191.82 334.84 189.96 333.05Q188.11 331.26 188.11 328.12L188.11 317.56Q188.11 314.42 189.96 312.63Q191.82 310.84 195.02 310.84Q198.15 310.84 200.01 312.65Q201.87 314.46 201.87 317.56L198.99 317.56Q198.99 315.58 197.95 314.50Q196.91 313.43 195.02 313.43Q193.13 313.43 192.06 314.50Q190.99 315.58 190.99 317.56L190.99 328.12Q190.99 330.10 192.06 331.18Q193.13 332.25 195.02 332.25Q196.91 332.25 197.95 331.18Q198.99 330.10 198.99 328.12L201.87 328.12Q201.87 331.22 200.01 333.03Q198.15 334.84 195.02 334.84" fill="white" fill-opacity="0.9"/>
<path d="M213.96 334.84Q210.83 334.84 209 333.02Q207.18 331.19 207.18 327.80L207.18 317.88Q207.18 314.49 209 312.66Q210.83 310.84 213.96 310.84Q217.10 310.84 218.92 312.66Q220.75 314.49 220.75 317.85L220.75 327.80Q220.75 331.19 218.92 333.02Q217.10 334.84 213.96 334.84M213.96 332.25Q215.85 332.25 216.86 331.18Q217.87 330.10 217.87 328.12L217.87 317.56Q217.87 315.58 216.86 314.50Q215.85 313.43 213.96 313.43Q212.11 313.43 211.08 314.50Q210.06 315.58 210.06 317.56L210.06 328.12Q210.06 330.10 211.08 331.18Q212.11 332.25 213.96 332.25" fill="white" fill-opacity="0.9"/>
<path d="M228.65 334.52L225.87 334.52L225.87 311.16L230.12 311.16L233.10 321.27L236.20 311.16L240.46 311.16L240.46 334.52L237.67 334.52L237.67 323.48Q237.67 321.91 237.72 319.88Q237.77 317.85 237.87 315.77Q237.96 313.69 238.09 312.02L234.31 324.09L231.82 324.09L228.20 312.31Q228.46 314.68 228.55 317.50Q228.65 320.31 228.65 323.48" fill="white" fill-opacity="0.9"/>
<path d="M247.85 334.52L245.07 334.52L245.07 311.16L249.32 311.16L252.30 321.27L255.40 311.16L259.66 311.16L259.66 334.52L256.87 334.52L256.87 323.48Q256.87 321.91 256.92 319.88Q256.97 317.85 257.07 315.77Q257.16 313.69 257.29 312.02L253.51 324.09L251.02 324.09L247.40 312.31Q247.66 314.68 247.75 317.50Q247.85 320.31 247.85 323.48" fill="white" fill-opacity="0.9"/>
<path d="M271.56 334.84Q268.30 334.84 266.57 333.03Q264.84 331.22 264.84 328.12L264.84 311.16L267.72 311.16L267.72 328.12Q267.72 330.04 268.67 331.16Q269.61 332.28 271.56 332.28Q273.48 332.28 274.44 331.16Q275.40 330.04 275.40 328.12L275.40 311.16L278.28 311.16L278.28 328.12Q278.28 331.26 276.57 333.05Q274.86 334.84 271.56 334.84" fill="white" fill-opacity="0.9"/>
<path d="M286.83 334.52L284.04 334.52L284.04 311.16L287.88 311.16L295.02 331.16Q294.95 330.36 294.87 329.19Q294.79 328.02 294.75 326.73Q294.70 325.43 294.70 324.28L294.70 311.16L297.48 311.16L297.48 334.52L293.64 334.52L286.54 314.52Q286.60 315.29 286.67 316.46Q286.73 317.62 286.78 318.92Q286.83 320.22 286.83 321.40" fill="white" fill-opacity="0.9"/>
<path d="M316.20 334.52L303.72 334.52L303.72 331.90L308.49 331.90L308.49 313.78L303.72 313.78L303.72 311.16L316.20 311.16L316.20 313.78L311.43 313.78L311.43 331.90L316.20 331.90" fill="white" fill-opacity="0.9"/>
<path d="M330.60 334.52L327.72 334.52L327.72 313.78L321.32 313.78L321.32 311.16L337 311.16L337 313.78L330.60 313.78" fill="white" fill-opacity="0.9"/>
<path d="M349.80 334.52L346.92 334.52L346.92 325.78L339.88 311.16L342.95 311.16L347.50 320.76Q347.88 321.56 348.11 322.12Q348.33 322.68 348.39 322.94Q348.46 322.68 348.70 322.12Q348.94 321.56 349.32 320.76L353.87 311.16L356.84 311.16L349.80 325.78" fill="white" fill-opacity="0.9"/>
<path d="M382.83 334.52L380.04 334.52L380.04 311.16L383.88 311.16L391.02 331.16Q390.95 330.36 390.87 329.19Q390.79 328.02 390.75 326.73Q390.70 325.43 390.70 324.28L390.70 311.16L393.48 311.16L393.48 334.52L389.64 334.52L382.54 314.52Q382.60 315.29 382.67 316.46Q382.73 317.62 382.78 318.92Q382.83 320.22 382.83 321.40" fill="white" fill-opacity="0.9"/>
<path d="M405.96 334.84Q402.83 334.84 401 333.02Q399.18 331.19 399.18 327.80L399.18 317.88Q399.18 314.49 401 312.66Q402.83 310.84 405.96 310.84Q409.10 310.84 410.92 312.66Q412.75 314.49 412.75 317.85L412.75 327.80Q412.75 331.19 410.92 333.02Q409.10 334.84 405.96 334.84M405.96 332.25Q407.85 332.25 408.86 331.18Q409.87 330.10 409.87 328.12L409.87 317.56Q409.87 315.58 408.86 314.50Q407.85 313.43 405.96 313.43Q404.11 313.43 403.08 314.50Q402.06 315.58 402.06 317.56L402.06 328.12Q402.06 330.10 403.08 331.18Q404.11 332.25 405.96 332.25" fill="white" fill-opacity="0.9"/>
<path d="M424.55 334.52L418.51 334.52L418.51 311.16L424.55 311.16Q426.83 311.16 428.47 312.02Q430.12 312.89 431.03 314.46Q431.95 316.02 431.95 318.17L431.95 327.48Q431.95 329.62 431.03 331.21Q430.12 332.79 428.47 333.66Q426.83 334.52 424.55 334.52M421.39 313.72L421.39 331.96L424.55 331.96Q426.67 331.96 427.87 330.78Q429.07 329.59 429.07 327.48L429.07 318.17Q429.07 316.09 427.87 314.90Q426.67 313.72 424.55 313.72" fill="white" fill-opacity="0.9"/>
<path d="M451.40 334.52L437.96 334.52L437.96 311.16L451.40 311.16L451.40 313.78L440.81 313.78L440.81 321.02L450.28 321.02L450.28 323.58L440.81 323.58L440.81 331.90L451.40 331.90" fill="white" fill-opacity="0.9"/>
<path d="M463.69 334.84Q460.30 334.84 458.28 333.05Q456.27 331.26 456.27 328.12L459.15 328.12Q459.15 330.07 460.39 331.18Q461.64 332.28 463.69 332.28Q465.67 332.28 466.86 331.13Q468.04 329.98 468.04 328.12Q468.04 326.71 467.29 325.67Q466.54 324.63 465.13 324.25L461.58 323.26Q459.37 322.62 458.11 320.97Q456.84 319.32 456.84 317.08Q456.84 315.22 457.67 313.82Q458.51 312.41 460.01 311.62Q461.51 310.84 463.47 310.84Q465.45 310.84 466.97 311.62Q468.49 312.41 469.35 313.80Q470.22 315.19 470.22 317.02L467.34 317.02Q467.34 315.42 466.25 314.41Q465.16 313.40 463.47 313.40Q461.77 313.40 460.71 314.41Q459.66 315.42 459.66 317.02Q459.66 318.30 460.35 319.21Q461.03 320.12 462.28 320.47L465.93 321.50Q468.27 322.14 469.56 323.91Q470.86 325.69 470.86 328.12Q470.86 331.19 468.91 333.02Q466.95 334.84 463.69 334.84" fill="white" fill-opacity="0.9"/>
</g>
<path d="M77.30 197.88Q74.90 197.88 73.50 196.54Q72.11 195.19 72.11 192.84L72.11 184.92Q72.11 182.57 73.50 181.22Q74.90 179.88 77.30 179.88Q79.65 179.88 81.04 181.24Q82.43 182.59 82.43 184.92L80.27 184.92Q80.27 183.43 79.49 182.63Q78.71 181.82 77.30 181.82Q75.88 181.82 75.08 182.62Q74.27 183.41 74.27 184.90L74.27 192.84Q74.27 194.33 75.08 195.14Q75.88 195.96 77.30 195.96Q78.71 195.96 79.49 195.14Q80.27 194.33 80.27 192.84L80.27 190.44L76.72 190.44L76.72 188.47L82.43 188.47L82.43 192.84Q82.43 195.17 81.04 196.52Q79.65 197.88 77.30 197.88" fill="white" fill-opacity="0.7"/>
<path d="M91.58 197.88Q89.30 197.88 87.93 196.52Q86.56 195.17 86.56 192.84L86.56 184.44L88.72 184.44L88.72 192.84Q88.72 194.28 89.49 195.13Q90.26 195.98 91.58 195.98Q92.92 195.98 93.70 195.13Q94.48 194.28 94.48 192.84L94.48 184.44L96.64 184.44L96.64 192.84Q96.64 195.17 95.25 196.52Q93.86 197.88 91.58 197.88" fill="white" fill-opacity="0.7"/>
<path d="M103.94 201.96L100.96 201.96L100.96 199.99L103.94 199.99Q105.42 199.99 106.25 199.18Q107.08 198.36 107.08 196.90L107.08 186.41L100.84 186.41L100.84 184.44L109.24 184.44L109.24 196.90Q109.24 199.22 107.80 200.59Q106.36 201.96 103.94 201.96M107.92 182.06Q107.13 182.06 106.67 181.66Q106.22 181.25 106.22 180.55Q106.22 179.83 106.67 179.41Q107.13 178.99 107.92 178.99Q108.71 178.99 109.17 179.41Q109.62 179.83 109.62 180.55Q109.62 181.25 109.17 181.66Q108.71 182.06 107.92 182.06" fill="white" fill-opacity="0.7"/>
<path d="M119.25 197.88Q117.21 197.88 116.01 196.74Q114.81 195.60 114.81 193.75Q114.81 192.53 115.36 191.62Q115.91 190.70 116.90 190.19Q117.88 189.67 119.15 189.67L123.23 189.67L123.23 188.64Q123.23 186.07 120.42 186.07Q119.18 186.07 118.41 186.53Q117.64 186.98 117.59 187.80L115.43 187.80Q115.55 186.24 116.88 185.22Q118.22 184.20 120.42 184.20Q122.82 184.20 124.11 185.35Q125.39 186.50 125.39 188.57L125.39 197.64L123.26 197.64L123.26 195.24L123.21 195.24Q123.02 196.46 121.98 197.17Q120.95 197.88 119.25 197.88M119.78 196.06Q121.36 196.06 122.30 195.29Q123.23 194.52 123.23 193.20L123.23 191.35L119.39 191.35Q118.34 191.35 117.68 191.99Q117.02 192.62 117.02 193.68Q117.02 194.78 117.75 195.42Q118.48 196.06 119.78 196.06" fill="white" fill-opacity="0.7"/>
<path d="M132.45 197.64L130.29 197.64L130.29 184.44L132.45 184.44L132.45 186.96L132.50 186.96Q132.66 185.69 133.58 184.94Q134.49 184.20 136.02 184.20Q138.09 184.20 139.20 185.44Q140.32 186.67 140.32 188.95L140.32 190.08L138.16 190.08L138.16 188.95Q138.16 186.07 135.35 186.07Q133.94 186.07 133.19 186.89Q132.45 187.70 132.45 189.24" fill="white" fill-opacity="0.7"/>
<path d="M148.05 197.88Q146.01 197.88 144.81 196.74Q143.61 195.60 143.61 193.75Q143.61 192.53 144.16 191.62Q144.71 190.70 145.70 190.19Q146.68 189.67 147.95 189.67L152.03 189.67L152.03 188.64Q152.03 186.07 149.22 186.07Q147.98 186.07 147.21 186.53Q146.44 186.98 146.39 187.80L144.23 187.80Q144.35 186.24 145.68 185.22Q147.02 184.20 149.22 184.20Q151.62 184.20 152.91 185.35Q154.19 186.50 154.19 188.57L154.19 197.64L152.06 197.64L152.06 195.24L152.01 195.24Q151.82 196.46 150.78 197.17Q149.75 197.88 148.05 197.88M148.58 196.06Q150.16 196.06 151.10 195.29Q152.03 194.52 152.03 193.20L152.03 191.35L148.19 191.35Q147.14 191.35 146.48 191.99Q145.82 192.62 145.82 193.68Q145.82 194.78 146.55 195.42Q147.28 196.06 148.58 196.06" fill="white" fill-opacity="0.7"/>
<path d="M168.76 197.64L164.92 197.64Q163.29 197.64 162.30 196.69Q161.32 195.74 161.32 194.16L161.32 186.41L157.53 186.41L157.53 184.44L161.32 184.44L161.32 180.72L163.48 180.72L163.48 184.44L168.88 184.44L168.88 186.41L163.48 186.41L163.48 194.16Q163.48 194.83 163.88 195.25Q164.27 195.67 164.92 195.67L168.76 195.67" fill="white" fill-opacity="0.7"/>
<path d="M193.86 197.64L190.91 197.64L186.40 180.12L188.61 180.12L191.61 192.05Q191.92 193.30 192.12 194.35Q192.33 195.41 192.42 195.96Q192.52 195.41 192.75 194.34Q192.98 193.27 193.29 192.02L196.17 180.12L198.40 180.12" fill="white" fill-opacity="0.7"/>
<path d="M212.92 197.64L201.64 197.64L201.64 195.67L206.32 195.67L206.32 186.41L202.12 186.41L202.12 184.44L208.48 184.44L208.48 195.67L212.92 195.67L212.92 197.64M207.16 182.06Q206.37 182.06 205.91 181.66Q205.46 181.25 205.46 180.55Q205.46 179.83 205.91 179.41Q206.37 178.99 207.16 178.99Q207.95 178.99 208.41 179.41Q208.86 179.83 208.86 180.55Q208.86 181.25 208.41 181.66Q207.95 182.06 207.16 182.06" fill="white" fill-opacity="0.7"/>
<path d="M220.43 197.88Q218.46 197.88 217.28 196.56Q216.09 195.24 216.09 192.98L216.09 189.12Q216.09 186.84 217.26 185.52Q218.44 184.20 220.43 184.20Q221.92 184.20 222.89 184.94Q223.86 185.69 224.06 186.96L224.08 186.96L224.03 183.96L224.03 180.12L226.19 180.12L226.19 197.64L224.03 197.64L224.03 195.12L224.01 195.12Q223.84 196.42 222.88 197.15Q221.92 197.88 220.43 197.88M221.15 196.01Q222.50 196.01 223.26 195.17Q224.03 194.33 224.03 192.84L224.03 189.24Q224.03 187.75 223.26 186.91Q222.50 186.07 221.15 186.07Q219.78 186.07 219.02 186.78Q218.25 187.49 218.25 189.12L218.25 192.96Q218.25 194.57 219.02 195.29Q219.78 196.01 221.15 196.01" fill="white" fill-opacity="0.7"/>
<path d="M234.93 201.96L232.67 201.96L234.62 196.82L229.70 184.44L232.02 184.44L235.14 192.60Q235.34 193.08 235.50 193.61Q235.67 194.14 235.74 194.52Q235.82 194.14 235.98 193.61Q236.15 193.08 236.32 192.60L239.22 184.44L241.50 184.44" fill="white" fill-opacity="0.7"/>
<path d="M248.85 197.88Q246.81 197.88 245.61 196.74Q244.41 195.60 244.41 193.75Q244.41 192.53 244.96 191.62Q245.51 190.70 246.50 190.19Q247.48 189.67 248.75 189.67L252.83 189.67L252.83 188.64Q252.83 186.07 250.02 186.07Q248.78 186.07 248.01 186.53Q247.24 186.98 247.19 187.80L245.03 187.80Q245.15 186.24 246.48 185.22Q247.82 184.20 250.02 184.20Q252.42 184.20 253.71 185.35Q254.99 186.50 254.99 188.57L254.99 197.64L252.86 197.64L252.86 195.24L252.81 195.24Q252.62 196.46 251.58 197.17Q250.55 197.88 248.85 197.88M249.38 196.06Q250.96 196.06 251.90 195.29Q252.83 194.52 252.83 193.20L252.83 191.35L248.99 191.35Q247.94 191.35 247.28 191.99Q246.62 192.62 246.62 193.68Q246.62 194.78 247.35 195.42Q248.08 196.06 249.38 196.06" fill="white" fill-opacity="0.7"/>
<path d="M261.57 201.96L259.41 201.96L259.41 184.44L261.57 184.44L261.57 186.96L261.59 186.96Q261.76 185.66 262.72 184.93Q263.68 184.20 265.17 184.20Q267.16 184.20 268.34 185.51Q269.51 186.82 269.51 189.10L269.51 192.96Q269.51 195.24 268.34 196.56Q267.16 197.88 265.17 197.88Q263.68 197.88 262.72 197.14Q261.76 196.39 261.59 195.12L261.52 195.12L261.57 198.12L261.57 201.96M264.45 196.01Q265.82 196.01 266.58 195.29Q267.35 194.57 267.35 192.96L267.35 189.12Q267.35 187.49 266.58 186.78Q265.82 186.07 264.45 186.07Q263.13 186.07 262.35 186.91Q261.57 187.75 261.57 189.24L261.57 192.84Q261.57 194.33 262.35 195.17Q263.13 196.01 264.45 196.01" fill="white" fill-opacity="0.7"/>
<path d="M284.92 197.64L273.64 197.64L273.64 195.67L278.32 195.67L278.32 186.41L274.12 186.41L274.12 184.44L280.48 184.44L280.48 195.67L284.92 195.67L284.92 197.64M279.16 182.06Q278.37 182.06 277.91 181.66Q277.46 181.25 277.46 180.55Q277.46 179.83 277.91 179.41Q278.37 178.99 279.16 178.99Q279.95 178.99 280.41 179.41Q280.86 179.83 280.86 180.55Q280.86 181.25 280.41 181.66Q279.95 182.06 279.16 182.06" fill="white" fill-opacity="0.7"/>
<path d="M298.36 197.64L294.52 197.64Q292.89 197.64 291.90 196.69Q290.92 195.74 290.92 194.16L290.92 186.41L287.13 186.41L287.13 184.44L290.92 184.44L290.92 180.72L293.08 180.72L293.08 184.44L298.48 184.44L298.48 186.41L293.08 186.41L293.08 194.16Q293.08 194.83 293.48 195.25Q293.87 195.67 294.52 195.67L298.36 195.67" fill="white" fill-opacity="0.7"/>
<path d="M304.77 197.64L302.61 197.64L302.61 180.12L304.77 180.12L304.77 186.96L304.79 186.96Q304.96 185.64 305.87 184.92Q306.78 184.20 308.30 184.20Q310.29 184.20 311.46 185.42Q312.64 186.65 312.64 188.76L312.64 197.64L310.48 197.64L310.48 189.12Q310.48 187.63 309.72 186.83Q308.97 186.02 307.67 186.02Q306.33 186.02 305.55 186.86Q304.77 187.70 304.77 189.24" fill="white" fill-opacity="0.7"/>
<path d="M342.52 197.64L331.24 197.64L331.24 195.67L335.92 195.67L335.92 186.41L331.72 186.41L331.72 184.44L338.08 184.44L338.08 195.67L342.52 195.67L342.52 197.64M336.76 182.06Q335.97 182.06 335.51 181.66Q335.06 181.25 335.06 180.55Q335.06 179.83 335.51 179.41Q335.97 178.99 336.76 178.99Q337.55 178.99 338.01 179.41Q338.46 179.83 338.46 180.55Q338.46 181.25 338.01 181.66Q337.55 182.06 336.76 182.06" fill="white" fill-opacity="0.7"/>
<path d="M351.33 197.83L350.27 197.83Q348.06 197.83 346.85 196.84Q345.64 195.84 345.64 194.02L347.80 194.02Q347.80 194.93 348.45 195.44Q349.10 195.96 350.27 195.96L351.33 195.96Q352.53 195.96 353.19 195.43Q353.85 194.90 353.85 193.94Q353.85 192.24 352.29 192.02L348.64 191.50Q347.30 191.30 346.55 190.38Q345.81 189.46 345.81 187.94Q345.81 186.22 347 185.23Q348.18 184.25 350.27 184.25L351.33 184.25Q353.25 184.25 354.46 185.20Q355.67 186.14 355.77 187.68L353.58 187.68Q353.54 186.98 352.92 186.53Q352.31 186.07 351.33 186.07L350.27 186.07Q349.17 186.07 348.54 186.58Q347.92 187.08 347.92 187.94Q347.92 189.34 349.19 189.53L352.60 190.01Q355.96 190.49 355.96 193.94Q355.96 195.79 354.75 196.81Q353.54 197.83 351.33 197.83" fill="white" fill-opacity="0.7"/>
<path d="M365.73 197.83L364.67 197.83Q362.46 197.83 361.25 196.84Q360.04 195.84 360.04 194.02L362.20 194.02Q362.20 194.93 362.85 195.44Q363.50 195.96 364.67 195.96L365.73 195.96Q366.93 195.96 367.59 195.43Q368.25 194.90 368.25 193.94Q368.25 192.24 366.69 192.02L363.04 191.50Q361.70 191.30 360.95 190.38Q360.21 189.46 360.21 187.94Q360.21 186.22 361.40 185.23Q362.58 184.25 364.67 184.25L365.73 184.25Q367.65 184.25 368.86 185.20Q370.07 186.14 370.17 187.68L367.98 187.68Q367.94 186.98 367.32 186.53Q366.71 186.07 365.73 186.07L364.67 186.07Q363.57 186.07 362.94 186.58Q362.32 187.08 362.32 187.94Q362.32 189.34 363.59 189.53L367 190.01Q370.36 190.49 370.36 193.94Q370.36 195.79 369.15 196.81Q367.94 197.83 365.73 197.83" fill="white" fill-opacity="0.7"/>
<path d="M379.58 197.88Q377.30 197.88 375.93 196.52Q374.56 195.17 374.56 192.84L374.56 184.44L376.72 184.44L376.72 192.84Q376.72 194.28 377.49 195.13Q378.26 195.98 379.58 195.98Q380.92 195.98 381.70 195.13Q382.48 194.28 382.48 192.84L382.48 184.44L384.64 184.44L384.64 192.84Q384.64 195.17 383.25 196.52Q381.86 197.88 379.58 197.88" fill="white" fill-opacity="0.7"/>
<path d="M394 197.88Q391.67 197.88 390.24 196.48Q388.82 195.07 388.82 192.60L388.82 189.48Q388.82 187.01 390.24 185.60Q391.67 184.20 394 184.20Q395.56 184.20 396.72 184.82Q397.89 185.45 398.54 186.58Q399.18 187.70 399.18 189.24L399.18 191.59L390.93 191.59L390.93 192.84Q390.93 194.30 391.77 195.16Q392.61 196.01 394 196.01Q395.20 196.01 395.98 195.54Q396.76 195.07 396.93 194.28L399.09 194.28Q398.87 195.94 397.48 196.91Q396.09 197.88 394 197.88M390.93 189.24L390.93 189.91L397.07 189.91L397.07 189.24Q397.07 187.68 396.27 186.83Q395.46 185.98 394 185.98Q392.54 185.98 391.73 186.83Q390.93 187.68 390.93 189.24" fill="white" fill-opacity="0.7"/>
<path d="M408.93 197.83L407.87 197.83Q405.66 197.83 404.45 196.84Q403.24 195.84 403.24 194.02L405.40 194.02Q405.40 194.93 406.05 195.44Q406.70 195.96 407.87 195.96L408.93 195.96Q410.13 195.96 410.79 195.43Q411.45 194.90 411.45 193.94Q411.45 192.24 409.89 192.02L406.24 191.50Q404.90 191.30 404.15 190.38Q403.41 189.46 403.41 187.94Q403.41 186.22 404.60 185.23Q405.78 184.25 407.87 184.25L408.93 184.25Q410.85 184.25 412.06 185.20Q413.27 186.14 413.37 187.68L411.18 187.68Q411.14 186.98 410.52 186.53Q409.91 186.07 408.93 186.07L407.87 186.07Q406.77 186.07 406.14 186.58Q405.52 187.08 405.52 187.94Q405.52 189.34 406.79 189.53L410.20 190.01Q413.56 190.49 413.56 193.94Q413.56 195.79 412.35 196.81Q411.14 197.83 408.93 197.83" fill="white" fill-opacity="0.7"/>
<path d="M436.74 197.64L432.21 197.64L432.21 180.12L436.74 180.12Q438.45 180.12 439.68 180.77Q440.92 181.42 441.60 182.59Q442.29 183.77 442.29 185.38L442.29 192.36Q442.29 193.97 441.60 195.16Q440.92 196.34 439.68 196.99Q438.45 197.64 436.74 197.64M434.37 182.04L434.37 195.72L436.74 195.72Q438.33 195.72 439.23 194.83Q440.13 193.94 440.13 192.36L440.13 185.38Q440.13 183.82 439.23 182.93Q438.33 182.04 436.74 182.04" fill="white" fill-opacity="0.7"/>
<path d="M457.72 197.64L446.44 197.64L446.44 195.67L451.12 195.67L451.12 186.41L446.92 186.41L446.92 184.44L453.28 184.44L453.28 195.67L457.72 195.67L457.72 197.64M451.96 182.06Q451.17 182.06 450.71 181.66Q450.26 181.25 450.26 180.55Q450.26 179.83 450.71 179.41Q451.17 178.99 451.96 178.99Q452.75 178.99 453.21 179.41Q453.66 179.83 453.66 180.55Q453.66 181.25 453.21 181.66Q452.75 182.06 451.96 182.06" fill="white" fill-opacity="0.7"/>
<path d="M466.36 201.96L462.66 201.96L462.66 199.99L466.38 199.99Q467.51 199.99 468.16 199.36Q468.81 198.72 468.81 197.64L468.81 196.44L468.86 194.28L468.78 194.28Q468.59 195.46 467.66 196.09Q466.72 196.73 465.30 196.73Q463.26 196.73 462.09 195.43Q460.91 194.14 460.91 191.88L460.91 189.10Q460.91 186.84 462.09 185.52Q463.26 184.20 465.30 184.20Q466.72 184.20 467.66 184.87Q468.59 185.54 468.78 186.72L468.83 186.72L468.83 184.44L470.97 184.44L470.97 197.64Q470.97 199.63 469.73 200.80Q468.50 201.96 466.36 201.96M465.95 194.93Q467.30 194.93 468.06 194.09Q468.83 193.25 468.83 191.76L468.83 189.24Q468.83 187.75 468.06 186.91Q467.30 186.07 465.95 186.07Q464.58 186.07 463.83 186.86Q463.07 187.66 463.07 189L463.07 192Q463.07 193.34 463.83 194.14Q464.58 194.93 465.95 194.93" fill="white" fill-opacity="0.7"/>
<path d="M486.52 197.64L475.24 197.64L475.24 195.67L479.92 195.67L479.92 186.41L475.72 186.41L475.72 184.44L482.08 184.44L482.08 195.67L486.52 195.67L486.52 197.64M480.76 182.06Q479.97 182.06 479.51 181.66Q479.06 181.25 479.06 180.55Q479.06 179.83 479.51 179.41Q479.97 178.99 480.76 178.99Q481.55 178.99 482.01 179.41Q482.46 179.83 482.46 180.55Q482.46 181.25 482.01 181.66Q481.55 182.06 480.76 182.06" fill="white" fill-opacity="0.7"/>
<path d="M500.80 197.64L490.72 197.64L490.72 180.12L492.88 180.12L492.88 195.67L500.80 195.67" fill="white" fill-opacity="0.7"/>
<path d="M509.20 197.83Q506.82 197.83 505.42 196.44Q504.02 195.05 504.02 192.55L504.02 189.53Q504.02 187.01 505.41 185.63Q506.80 184.25 509.20 184.25Q511.60 184.25 512.99 185.63Q514.38 187.01 514.38 189.53L514.38 192.55Q514.38 195.05 512.98 196.44Q511.58 197.83 509.20 197.83M509.20 195.91Q510.62 195.91 511.42 195.12Q512.22 194.33 512.22 192.79L512.22 189.29Q512.22 187.75 511.42 186.96Q510.62 186.17 509.20 186.17Q507.81 186.17 506.99 186.96Q506.18 187.75 506.18 189.29L506.18 192.79Q506.18 194.33 506.99 195.12Q507.81 195.91 509.20 195.91" fill="white" fill-opacity="0.7"/>
<path d="M523.79 197.88Q521.39 197.88 519.95 196.54Q518.51 195.19 518.51 192.84L518.51 189.24Q518.51 186.89 519.95 185.54Q521.39 184.20 523.79 184.20Q526.07 184.20 527.48 185.42Q528.88 186.65 528.95 188.76L526.79 188.76Q526.72 187.49 525.93 186.80Q525.14 186.12 523.79 186.12Q522.38 186.12 521.52 186.92Q520.67 187.73 520.67 189.22L520.67 192.84Q520.67 194.33 521.52 195.14Q522.38 195.96 523.79 195.96Q525.14 195.96 525.93 195.26Q526.72 194.57 526.79 193.32L528.95 193.32Q528.88 195.43 527.48 196.66Q526.07 197.88 523.79 197.88" fill="white" fill-opacity="0.7"/>
<path d="M535.29 197.64L533.13 197.64L533.13 180.12L535.29 180.12L535.29 189.89L537.81 189.89L541.50 184.44L543.98 184.44L539.73 190.73L544.22 197.64L541.70 197.64L537.86 191.76L535.29 191.76" fill="white" fill-opacity="0.7"/>
<path d="M552.40 197.88Q550.07 197.88 548.64 196.48Q547.22 195.07 547.22 192.60L547.22 189.48Q547.22 187.01 548.64 185.60Q550.07 184.20 552.40 184.20Q553.96 184.20 555.12 184.82Q556.29 185.45 556.94 186.58Q557.58 187.70 557.58 189.24L557.58 191.59L549.33 191.59L549.33 192.84Q549.33 194.30 550.17 195.16Q551.01 196.01 552.40 196.01Q553.60 196.01 554.38 195.54Q555.16 195.07 555.33 194.28L557.49 194.28Q557.27 195.94 555.88 196.91Q554.49 197.88 552.40 197.88M549.33 189.24L549.33 189.91L555.47 189.91L555.47 189.24Q555.47 187.68 554.67 186.83Q553.86 185.98 552.40 185.98Q550.94 185.98 550.13 186.83Q549.33 187.68 549.33 189.24" fill="white" fill-opacity="0.7"/>
<path d="M564.45 197.64L562.29 197.64L562.29 184.44L564.45 184.44L564.45 186.96L564.50 186.96Q564.66 185.69 565.58 184.94Q566.49 184.20 568.02 184.20Q570.09 184.20 571.20 185.44Q572.32 186.67 572.32 188.95L572.32 190.08L570.16 190.08L570.16 188.95Q570.16 186.07 567.35 186.07Q565.94 186.07 565.19 186.89Q564.45 187.70 564.45 189.24" fill="white" fill-opacity="0.7"/>
<path d="M595.14 197.64L590.61 197.64L590.61 180.12L595.14 180.12Q596.85 180.12 598.08 180.77Q599.32 181.42 600 182.59Q600.69 183.77 600.69 185.38L600.69 192.36Q600.69 193.97 600 195.16Q599.32 196.34 598.08 196.99Q596.85 197.64 595.14 197.64M592.77 182.04L592.77 195.72L595.14 195.72Q596.73 195.72 597.63 194.83Q598.53 193.94 598.53 192.36L598.53 185.38Q598.53 183.82 597.63 182.93Q596.73 182.04 595.14 182.04" fill="white" fill-opacity="0.7"/>
<path d="M610 197.88Q607.67 197.88 606.24 196.48Q604.82 195.07 604.82 192.60L604.82 189.48Q604.82 187.01 606.24 185.60Q607.67 184.20 610 184.20Q611.56 184.20 612.72 184.82Q613.89 185.45 614.54 186.58Q615.18 187.70 615.18 189.24L615.18 191.59L606.93 191.59L606.93 192.84Q606.93 194.30 607.77 195.16Q608.61 196.01 610 196.01Q611.20 196.01 611.98 195.54Q612.76 195.07 612.93 194.28L615.09 194.28Q614.87 195.94 613.48 196.91Q612.09 197.88 610 197.88M606.93 189.24L606.93 189.91L613.07 189.91L613.07 189.24Q613.07 187.68 612.27 186.83Q611.46 185.98 610 185.98Q608.54 185.98 607.73 186.83Q606.93 187.68 606.93 189.24" fill="white" fill-opacity="0.7"/>
<path d="M624.76 201.96L621.06 201.96L621.06 199.99L624.78 199.99Q625.91 199.99 626.56 199.36Q627.21 198.72 627.21 197.64L627.21 196.44L627.26 194.28L627.18 194.28Q626.99 195.46 626.06 196.09Q625.12 196.73 623.70 196.73Q621.66 196.73 620.49 195.43Q619.31 194.14 619.31 191.88L619.31 189.10Q619.31 186.84 620.49 185.52Q621.66 184.20 623.70 184.20Q625.12 184.20 626.06 184.87Q626.99 185.54 627.18 186.72L627.23 186.72L627.23 184.44L629.37 184.44L629.37 197.64Q629.37 199.63 628.13 200.80Q626.90 201.96 624.76 201.96M624.35 194.93Q625.70 194.93 626.46 194.09Q627.23 193.25 627.23 191.76L627.23 189.24Q627.23 187.75 626.46 186.91Q625.70 186.07 624.35 186.07Q622.98 186.07 622.23 186.86Q621.47 187.66 621.47 189L621.47 192Q621.47 193.34 622.23 194.14Q622.98 194.93 624.35 194.93" fill="white" fill-opacity="0.7"/>
<path d="M636.45 197.64L634.29 197.64L634.29 184.44L636.45 184.44L636.45 186.96L636.50 186.96Q636.66 185.69 637.58 184.94Q638.49 184.20 640.02 184.20Q642.09 184.20 643.20 185.44Q644.32 186.67 644.32 188.95L644.32 190.08L642.16 190.08L642.16 188.95Q642.16 186.07 639.35 186.07Q637.94 186.07 637.19 186.89Q636.45 187.70 636.45 189.24" fill="white" fill-opacity="0.7"/>
<path d="M653.20 197.88Q650.87 197.88 649.44 196.48Q648.02 195.07 648.02 192.60L648.02 189.48Q648.02 187.01 649.44 185.60Q650.87 184.20 653.20 184.20Q654.76 184.20 655.92 184.82Q657.09 185.45 657.74 186.58Q658.38 187.70 658.38 189.24L658.38 191.59L650.13 191.59L650.13 192.84Q650.13 194.30 650.97 195.16Q651.81 196.01 653.20 196.01Q654.40 196.01 655.18 195.54Q655.96 195.07 656.13 194.28L658.29 194.28Q658.07 195.94 656.68 196.91Q655.29 197.88 653.20 197.88M650.13 189.24L650.13 189.91L656.27 189.91L656.27 189.24Q656.27 187.68 655.47 186.83Q654.66 185.98 653.20 185.98Q651.74 185.98 650.93 186.83Q650.13 187.68 650.13 189.24" fill="white" fill-opacity="0.7"/>
<path d="M667.60 197.88Q665.27 197.88 663.84 196.48Q662.42 195.07 662.42 192.60L662.42 189.48Q662.42 187.01 663.84 185.60Q665.27 184.20 667.60 184.20Q669.16 184.20 670.32 184.82Q671.49 185.45 672.14 186.58Q672.78 187.70 672.78 189.24L672.78 191.59L664.53 191.59L664.53 192.84Q664.53 194.30 665.37 195.16Q666.21 196.01 667.60 196.01Q668.80 196.01 669.58 195.54Q670.36 195.07 670.53 194.28L672.69 194.28Q672.47 195.94 671.08 196.91Q669.69 197.88 667.60 197.88M664.53 189.24L664.53 189.91L670.67 189.91L670.67 189.24Q670.67 187.68 669.87 186.83Q669.06 185.98 667.60 185.98Q666.14 185.98 665.33 186.83Q664.53 187.68 664.53 189.24" fill="white" fill-opacity="0.7"/>
<path d="M696.59 197.88Q694.19 197.88 692.75 196.54Q691.31 195.19 691.31 192.84L691.31 189.24Q691.31 186.89 692.75 185.54Q694.19 184.20 696.59 184.20Q698.87 184.20 700.28 185.42Q701.68 186.65 701.75 188.76L699.59 188.76Q699.52 187.49 698.73 186.80Q697.94 186.12 696.59 186.12Q695.18 186.12 694.32 186.92Q693.47 187.73 693.47 189.22L693.47 192.84Q693.47 194.33 694.32 195.14Q695.18 195.96 696.59 195.96Q697.94 195.96 698.73 195.26Q699.52 194.57 699.59 193.32L701.75 193.32Q701.68 195.43 700.28 196.66Q698.87 197.88 696.59 197.88" fill="white" fill-opacity="0.7"/>
<path d="M710.80 197.88Q708.47 197.88 707.04 196.48Q705.62 195.07 705.62 192.60L705.62 189.48Q705.62 187.01 707.04 185.60Q708.47 184.20 710.80 184.20Q712.36 184.20 713.52 184.82Q714.69 185.45 715.34 186.58Q715.98 187.70 715.98 189.24L715.98 191.59L707.73 191.59L707.73 192.84Q707.73 194.30 708.57 195.16Q709.41 196.01 710.80 196.01Q712 196.01 712.78 195.54Q713.56 195.07 713.73 194.28L715.89 194.28Q715.67 195.94 714.28 196.91Q712.89 197.88 710.80 197.88M707.73 189.24L707.73 189.91L713.87 189.91L713.87 189.24Q713.87 187.68 713.07 186.83Q712.26 185.98 710.80 185.98Q709.34 185.98 708.53 186.83Q707.73 187.68 707.73 189.24" fill="white" fill-opacity="0.7"/>
<path d="M722.85 197.64L720.69 197.64L720.69 184.44L722.85 184.44L722.85 186.96L722.90 186.96Q723.06 185.69 723.98 184.94Q724.89 184.20 726.42 184.20Q728.49 184.20 729.60 185.44Q730.72 186.67 730.72 188.95L730.72 190.08L728.56 190.08L728.56 188.95Q728.56 186.07 725.75 186.07Q724.34 186.07 723.59 186.89Q722.85 187.70 722.85 189.24" fill="white" fill-opacity="0.7"/>
<path d="M744.76 197.64L740.92 197.64Q739.29 197.64 738.30 196.69Q737.32 195.74 737.32 194.16L737.32 186.41L733.53 186.41L733.53 184.44L737.32 184.44L737.32 180.72L739.48 180.72L739.48 184.44L744.88 184.44L744.88 186.41L739.48 186.41L739.48 194.16Q739.48 194.83 739.88 195.25Q740.27 195.67 740.92 195.67L744.76 195.67" fill="white" fill-opacity="0.7"/>
<path d="M760.12 197.64L748.84 197.64L748.84 195.67L753.52 195.67L753.52 186.41L749.32 186.41L749.32 184.44L755.68 184.44L755.68 195.67L760.12 195.67L760.12 197.64M754.36 182.06Q753.57 182.06 753.11 181.66Q752.66 181.25 752.66 180.55Q752.66 179.83 753.11 179.41Q753.57 178.99 754.36 178.99Q755.15 178.99 755.61 179.41Q756.06 179.83 756.06 180.55Q756.06 181.25 755.61 181.66Q755.15 182.06 754.36 182.06" fill="white" fill-opacity="0.7"/>
<path d="M768.52 197.64L766.36 197.64L766.36 188.21L762.52 188.21L762.52 186.24L766.36 186.24L766.36 183.48Q766.36 181.92 767.34 181.02Q768.33 180.12 770.06 180.12L773.92 180.12L773.92 182.09L770.06 182.09Q768.52 182.09 768.52 183.48L768.52 186.24L773.92 186.24L773.92 188.21L768.52 188.21" fill="white" fill-opacity="0.7"/>
<path d="M788.92 197.64L777.64 197.64L777.64 195.67L782.32 195.67L782.32 186.41L778.12 186.41L778.12 184.44L784.48 184.44L784.48 195.67L788.92 195.67L788.92 197.64M783.16 182.06Q782.37 182.06 781.91 181.66Q781.46 181.25 781.46 180.55Q781.46 179.83 781.91 179.41Q782.37 178.99 783.16 178.99Q783.95 178.99 784.41 179.41Q784.86 179.83 784.86 180.55Q784.86 181.25 784.41 181.66Q783.95 182.06 783.16 182.06" fill="white" fill-opacity="0.7"/>
<path d="M797.39 197.88Q794.99 197.88 793.55 196.54Q792.11 195.19 792.11 192.84L792.11 189.24Q792.11 186.89 793.55 185.54Q794.99 184.20 797.39 184.20Q799.67 184.20 801.08 185.42Q802.48 186.65 802.55 188.76L800.39 188.76Q800.32 187.49 799.53 186.80Q798.74 186.12 797.39 186.12Q795.98 186.12 795.12 186.92Q794.27 187.73 794.27 189.22L794.27 192.84Q794.27 194.33 795.12 195.14Q795.98 195.96 797.39 195.96Q798.74 195.96 799.53 195.26Q800.32 194.57 800.39 193.32L802.55 193.32Q802.48 195.43 801.08 196.66Q799.67 197.88 797.39 197.88" fill="white" fill-opacity="0.7"/>
<path d="M810.45 197.88Q808.41 197.88 807.21 196.74Q806.01 195.60 806.01 193.75Q806.01 192.53 806.56 191.62Q807.11 190.70 808.10 190.19Q809.08 189.67 810.35 189.67L814.43 189.67L814.43 188.64Q814.43 186.07 811.62 186.07Q810.38 186.07 809.61 186.53Q808.84 186.98 808.79 187.80L806.63 187.80Q806.75 186.24 808.08 185.22Q809.42 184.20 811.62 184.20Q814.02 184.20 815.31 185.35Q816.59 186.50 816.59 188.57L816.59 197.64L814.46 197.64L814.46 195.24L814.41 195.24Q814.22 196.46 813.18 197.17Q812.15 197.88 810.45 197.88M810.98 196.06Q812.56 196.06 813.50 195.29Q814.43 194.52 814.43 193.20L814.43 191.35L810.59 191.35Q809.54 191.35 808.88 191.99Q808.22 192.62 808.22 193.68Q808.22 194.78 808.95 195.42Q809.68 196.06 810.98 196.06" fill="white" fill-opacity="0.7"/>
<path d="M831.16 197.64L827.32 197.64Q825.69 197.64 824.70 196.69Q823.72 195.74 823.72 194.16L823.72 186.41L819.93 186.41L819.93 184.44L823.72 184.44L823.72 180.72L825.88 180.72L825.88 184.44L831.28 184.44L831.28 186.41L825.88 186.41L825.88 194.16Q825.88 194.83 826.28 195.25Q826.67 195.67 827.32 195.67L831.16 195.67" fill="white" fill-opacity="0.7"/>
<path d="M840.40 197.88Q838.07 197.88 836.64 196.48Q835.22 195.07 835.22 192.60L835.22 189.48Q835.22 187.01 836.64 185.60Q838.07 184.20 840.40 184.20Q841.96 184.20 843.12 184.82Q844.29 185.45 844.94 186.58Q845.58 187.70 845.58 189.24L845.58 191.59L837.33 191.59L837.33 192.84Q837.33 194.30 838.17 195.16Q839.01 196.01 840.40 196.01Q841.60 196.01 842.38 195.54Q843.16 195.07 843.33 194.28L845.49 194.28Q845.27 195.94 843.88 196.91Q842.49 197.88 840.40 197.88M837.33 189.24L837.33 189.91L843.47 189.91L843.47 189.24Q843.47 187.68 842.67 186.83Q841.86 185.98 840.40 185.98Q838.94 185.98 838.13 186.83Q837.33 187.68 837.33 189.24" fill="white" fill-opacity="0.7"/>
<path d="M855.33 197.83L854.27 197.83Q852.06 197.83 850.85 196.84Q849.64 195.84 849.64 194.02L851.80 194.02Q851.80 194.93 852.45 195.44Q853.10 195.96 854.27 195.96L855.33 195.96Q856.53 195.96 857.19 195.43Q857.85 194.90 857.85 193.94Q857.85 192.24 856.29 192.02L852.64 191.50Q851.30 191.30 850.55 190.38Q849.81 189.46 849.81 187.94Q849.81 186.22 851 185.23Q852.18 184.25 854.27 184.25L855.33 184.25Q857.25 184.25 858.46 185.20Q859.67 186.14 859.77 187.68L857.58 187.68Q857.54 186.98 856.92 186.53Q856.31 186.07 855.33 186.07L854.27 186.07Q853.17 186.07 852.54 186.58Q851.92 187.08 851.92 187.94Q851.92 189.34 853.19 189.53L856.60 190.01Q859.96 190.49 859.96 193.94Q859.96 195.79 858.75 196.81Q857.54 197.83 855.33 197.83" fill="white" fill-opacity="0.7"/>
<path d="M883.72 197.64L881.56 197.64L881.56 188.21L877.72 188.21L877.72 186.24L881.56 186.24L881.56 183.48Q881.56 181.92 882.54 181.02Q883.53 180.12 885.26 180.12L889.12 180.12L889.12 182.09L885.26 182.09Q883.72 182.09 883.72 183.48L883.72 186.24L889.12 186.24L889.12 188.21L883.72 188.21" fill="white" fill-opacity="0.7"/>
<path d="M898 197.83Q895.62 197.83 894.22 196.44Q892.82 195.05 892.82 192.55L892.82 189.53Q892.82 187.01 894.21 185.63Q895.60 184.25 898 184.25Q900.40 184.25 901.79 185.63Q903.18 187.01 903.18 189.53L903.18 192.55Q903.18 195.05 901.78 196.44Q900.38 197.83 898 197.83M898 195.91Q899.42 195.91 900.22 195.12Q901.02 194.33 901.02 192.79L901.02 189.29Q901.02 187.75 900.22 186.96Q899.42 186.17 898 186.17Q896.61 186.17 895.79 186.96Q894.98 187.75 894.98 189.29L894.98 192.79Q894.98 194.33 895.79 195.12Q896.61 195.91 898 195.91" fill="white" fill-opacity="0.7"/>
<path d="M910.05 197.64L907.89 197.64L907.89 184.44L910.05 184.44L910.05 186.96L910.10 186.96Q910.26 185.69 911.18 184.94Q912.09 184.20 913.62 184.20Q915.69 184.20 916.80 185.44Q917.92 186.67 917.92 188.95L917.92 190.08L915.76 190.08L915.76 188.95Q915.76 186.07 912.95 186.07Q911.54 186.07 910.79 186.89Q910.05 187.70 910.05 189.24" fill="white" fill-opacity="0.7"/>
<path d="M941.73 197.83L940.67 197.83Q938.46 197.83 937.25 196.84Q936.04 195.84 936.04 194.02L938.20 194.02Q938.20 194.93 938.85 195.44Q939.50 195.96 940.67 195.96L941.73 195.96Q942.93 195.96 943.59 195.43Q944.25 194.90 944.25 193.94Q944.25 192.24 942.69 192.02L939.04 191.50Q937.70 191.30 936.95 190.38Q936.21 189.46 936.21 187.94Q936.21 186.22 937.40 185.23Q938.58 184.25 940.67 184.25L941.73 184.25Q943.65 184.25 944.86 185.20Q946.07 186.14 946.17 187.68L943.98 187.68Q943.94 186.98 943.32 186.53Q942.71 186.07 941.73 186.07L940.67 186.07Q939.57 186.07 938.94 186.58Q938.32 187.08 938.32 187.94Q938.32 189.34 939.59 189.53L943 190.01Q946.36 190.49 946.36 193.94Q946.36 195.79 945.15 196.81Q943.94 197.83 941.73 197.83" fill="white" fill-opacity="0.7"/>
<path d="M960.76 197.64L956.92 197.64Q955.29 197.64 954.30 196.69Q953.32 195.74 953.32 194.16L953.32 186.41L949.53 186.41L949.53 184.44L953.32 184.44L953.32 180.72L955.48 180.72L955.48 184.44L960.88 184.44L960.88 186.41L955.48 186.41L955.48 194.16Q955.48 194.83 955.88 195.25Q956.27 195.67 956.92 195.67L960.76 195.67" fill="white" fill-opacity="0.7"/>
<path d="M969.98 197.88Q967.70 197.88 966.33 196.52Q964.96 195.17 964.96 192.84L964.96 184.44L967.12 184.44L967.12 192.84Q967.12 194.28 967.89 195.13Q968.66 195.98 969.98 195.98Q971.32 195.98 972.10 195.13Q972.88 194.28 972.88 192.84L972.88 184.44L975.04 184.44L975.04 192.84Q975.04 195.17 973.65 196.52Q972.26 197.88 969.98 197.88" fill="white" fill-opacity="0.7"/>
<path d="M983.63 197.88Q981.66 197.88 980.48 196.56Q979.29 195.24 979.29 192.98L979.29 189.12Q979.29 186.84 980.46 185.52Q981.64 184.20 983.63 184.20Q985.12 184.20 986.09 184.94Q987.06 185.69 987.26 186.96L987.28 186.96L987.23 183.96L987.23 180.12L989.39 180.12L989.39 197.64L987.23 197.64L987.23 195.12L987.21 195.12Q987.04 196.42 986.08 197.15Q985.12 197.88 983.63 197.88M984.35 196.01Q985.70 196.01 986.46 195.17Q987.23 194.33 987.23 192.84L987.23 189.24Q987.23 187.75 986.46 186.91Q985.70 186.07 984.35 186.07Q982.98 186.07 982.22 186.78Q981.45 187.49 981.45 189.12L981.45 192.96Q981.45 194.57 982.22 195.29Q982.98 196.01 984.35 196.01" fill="white" fill-opacity="0.7"/>
<path d="M998.80 197.88Q996.47 197.88 995.04 196.48Q993.62 195.07 993.62 192.60L993.62 189.48Q993.62 187.01 995.04 185.60Q996.47 184.20 998.80 184.20Q1000.36 184.20 1001.52 184.82Q1002.69 185.45 1003.34 186.58Q1003.98 187.70 1003.98 189.24L1003.98 191.59L995.73 191.59L995.73 192.84Q995.73 194.30 996.57 195.16Q997.41 196.01 998.80 196.01Q1000 196.01 1000.78 195.54Q1001.56 195.07 1001.73 194.28L1003.89 194.28Q1003.67 195.94 1002.28 196.91Q1000.89 197.88 998.80 197.88M995.73 189.24L995.73 189.91L1001.87 189.91L1001.87 189.24Q1001.87 187.68 1001.07 186.83Q1000.26 185.98 998.80 185.98Q997.34 185.98 996.53 186.83Q995.73 187.68 995.73 189.24" fill="white" fill-opacity="0.7"/>
<path d="M1010.37 197.64L1008.21 197.64L1008.21 184.44L1010.37 184.44L1010.37 186.96L1010.39 186.96Q1010.56 185.64 1011.47 184.92Q1012.38 184.20 1013.90 184.20Q1015.89 184.20 1017.06 185.42Q1018.24 186.65 1018.24 188.76L1018.24 197.64L1016.08 197.64L1016.08 189.14Q1016.08 187.63 1015.32 186.83Q1014.57 186.02 1013.27 186.02Q1011.93 186.02 1011.15 186.86Q1010.37 187.70 1010.37 189.24" fill="white" fill-opacity="0.7"/>
<path d="M1032.76 197.64L1028.92 197.64Q1027.29 197.64 1026.30 196.69Q1025.32 195.74 1025.32 194.16L1025.32 186.41L1021.53 186.41L1021.53 184.44L1025.32 184.44L1025.32 180.72L1027.48 180.72L1027.48 184.44L1032.88 184.44L1032.88 186.41L1027.48 186.41L1027.48 194.16Q1027.48 194.83 1027.88 195.25Q1028.27 195.67 1028.92 195.67L1032.76 195.67" fill="white" fill-opacity="0.7"/>
<path d="M76.05 229.88Q74.01 229.88 72.81 228.74Q71.61 227.60 71.61 225.75Q71.61 224.53 72.16 223.62Q72.71 222.70 73.70 222.19Q74.68 221.67 75.95 221.67L80.03 221.67L80.03 220.64Q80.03 218.07 77.22 218.07Q75.98 218.07 75.21 218.53Q74.44 218.98 74.39 219.80L72.23 219.80Q72.35 218.24 73.68 217.22Q75.02 216.20 77.22 216.20Q79.62 216.20 80.91 217.35Q82.19 218.50 82.19 220.57L82.19 229.64L80.06 229.64L80.06 227.24L80.01 227.24Q79.82 228.46 78.78 229.17Q77.75 229.88 76.05 229.88M76.58 228.06Q78.16 228.06 79.10 227.29Q80.03 226.52 80.03 225.20L80.03 223.35L76.19 223.35Q75.14 223.35 74.48 223.99Q73.82 224.62 73.82 225.68Q73.82 226.78 74.55 227.42Q75.28 228.06 76.58 228.06" fill="white" fill-opacity="0.7"/>
<path d="M91.79 229.88Q89.39 229.88 87.95 228.54Q86.51 227.19 86.51 224.84L86.51 221.24Q86.51 218.89 87.95 217.54Q89.39 216.20 91.79 216.20Q94.07 216.20 95.48 217.42Q96.88 218.65 96.95 220.76L94.79 220.76Q94.72 219.49 93.93 218.80Q93.14 218.12 91.79 218.12Q90.38 218.12 89.52 218.92Q88.67 219.73 88.67 221.22L88.67 224.84Q88.67 226.33 89.52 227.14Q90.38 227.96 91.79 227.96Q93.14 227.96 93.93 227.26Q94.72 226.57 94.79 225.32L96.95 225.32Q96.88 227.43 95.48 228.66Q94.07 229.88 91.79 229.88" fill="white" fill-opacity="0.7"/>
<path d="M106.19 229.88Q103.79 229.88 102.35 228.54Q100.91 227.19 100.91 224.84L100.91 221.24Q100.91 218.89 102.35 217.54Q103.79 216.20 106.19 216.20Q108.47 216.20 109.88 217.42Q111.28 218.65 111.35 220.76L109.19 220.76Q109.12 219.49 108.33 218.80Q107.54 218.12 106.19 218.12Q104.78 218.12 103.92 218.92Q103.07 219.73 103.07 221.22L103.07 224.84Q103.07 226.33 103.92 227.14Q104.78 227.96 106.19 227.96Q107.54 227.96 108.33 227.26Q109.12 226.57 109.19 225.32L111.35 225.32Q111.28 227.43 109.88 228.66Q108.47 229.88 106.19 229.88" fill="white" fill-opacity="0.7"/>
<path d="M120.40 229.83Q118.02 229.83 116.62 228.44Q115.22 227.05 115.22 224.55L115.22 221.53Q115.22 219.01 116.61 217.63QNaN 216.25 120.40 216.25Q122.80 216.25 124.19 217.63Q125.58 219.01 125.58 221.53L125.58 224.55Q125.58 227.05 124.18 228.44Q122.78 229.83 120.40 229.83M120.40 227.91Q121.82 227.91 122.62 227.12Q123.42 226.33 123.42 224.79L123.42 221.29Q123.42 219.75 122.62 218.96Q121.82 218.17 120.40 218.17Q119.01 218.17 118.19 218.96Q117.38 219.75 117.38 221.29L117.38 224.79Q117.38 226.33 118.19 227.12Q119.01 227.91 120.40 227.91" fill="white" fill-opacity="0.7"/>
<path d="M134.78 229.88Q132.50 229.88 131.13 228.52Q129.76 227.17 129.76 224.84L129.76 216.44L131.92 216.44L131.92 224.84Q131.92 226.28 132.69 227.13Q133.46 227.98 134.78 227.98Q136.12 227.98 136.90 227.13Q137.68 226.28 137.68 224.84L137.68 216.44L139.84 216.44L139.84 224.84Q139.84 227.17 138.45 228.52Q137.06 229.88 134.78 229.88" fill="white" fill-opacity="0.7"/>
<path d="M146.37 229.64L144.21 229.64L144.21 216.44L146.37 216.44L146.37 218.96L146.39 218.96Q146.56 217.64 147.47 216.92Q148.38 216.20 149.90 216.20Q151.89 216.20 153.06 217.42Q154.24 218.65 154.24 220.76L154.24 229.64L152.08 229.64L152.08 221.14Q152.08 219.63 151.32 218.83Q150.57 218.02 149.27 218.02Q147.93 218.02 147.15 218.86Q146.37 219.70 146.37 221.24" fill="white" fill-opacity="0.7"/>
<path d="M168.76 229.64L164.92 229.64Q163.29 229.64 162.30 228.69Q161.32 227.74 161.32 226.16L161.32 218.41L157.53 218.41L157.53 216.44L161.32 216.44L161.32 212.72L163.48 212.72L163.48 216.44L168.88 216.44L168.88 218.41L163.48 218.41L163.48 226.16Q163.48 226.83 163.88 227.25Q164.27 227.67 164.92 227.67L168.76 227.67" fill="white" fill-opacity="0.7"/>
<path d="M178.53 229.83L177.47 229.83Q175.26 229.83 174.05 228.84Q172.84 227.84 172.84 226.02LNaN 226.02QNaN 226.93 175.65 227.44Q176.30 227.96 177.47 227.96L178.53 227.96Q179.73 227.96 180.39 227.43Q181.05 226.90 181.05 225.94Q181.05 224.24 179.49 224.02L175.84 223.50Q174.50 223.30 173.75 222.38Q173.01 221.46 173.01 219.94Q173.01 218.22 174.20 217.23Q175.38 216.25 177.47 216.25L178.53 216.25Q180.45 216.25 181.66 217.20Q182.87 218.14 182.97 219.68L180.78 219.68Q180.74 218.98 180.12 218.53Q179.51 218.07 178.53 218.07L177.47 218.07Q176.37 218.07 175.74 218.58Q175.12 219.08 175.12 219.94Q175.12 221.34 176.39 221.53L179.80 222.01Q183.16 222.49 183.16 225.94Q183.16 227.79 181.95 228.81Q180.74 229.83 178.53 229.83" fill="white" fill-opacity="0.7"/>
<path d="M192.40 229.88Q191.51 229.88 190.97 229.35Q190.43 228.82 190.43 227.98Q190.43 227.10 190.97 226.54Q191.51 225.99 192.40 225.99Q193.29 225.99 193.83 226.54Q194.37 227.10 194.37 227.98Q194.37 228.82 193.83 229.35Q193.29 229.88 192.40 229.88" fill="white" fill-opacity="0.7"/>
<path d="M76.11 136.06L66.42 136.06L84.56 65.98L97.14 65.98L115.18 136.06L105.49 136.06L101.07 117.82L80.53 117.82L76.11 136.06M87.54 88.92L82.45 109.95L99.15 109.95L94.16 89.02Q92.72 83.26 91.86 79.23Q90.99 75.20 90.80 73.76Q90.61 75.20 89.74 79.23Q88.88 83.26 87.54 88.92M137.55 136.06L128.05 136.06L128.05 65.98L150.80 65.98Q157.52 65.98 162.42 68.57Q167.31 71.16 170 75.82Q172.69 80.48 172.69 86.91Q172.69 93.24 170 97.90Q167.31 102.56 162.37 105.15Q157.42 107.74 150.80 107.74L137.55 107.74L137.55 136.06M137.55 74.43L137.55 99.29L150.80 99.29Q156.37 99.29 159.63 95.88Q162.90 92.48 162.90 86.91Q162.90 81.24 159.63 77.84Q156.37 74.43 150.80 74.43L137.55 74.43M225.10 136.06L186.90 136.06L186.90 127.42L201.20 127.42L201.20 74.62L186.90 74.62L186.90 65.98L225.10 65.98L225.10 74.62L210.80 74.62L210.80 127.42L225.10 127.42L225.10 136.06M263.98 137.02Q253.62 137.02 247.47 131.60Q241.33 126.17 241.33 116.67L250.83 116.67Q250.83 122.24 254.38 125.40Q257.94 128.57 263.98 128.57Q269.74 128.57 273.15 125.36Q276.56 122.14 276.56 116.76Q276.56 112.73 274.35 109.71Q272.14 106.68 268.11 105.63L257.74 102.84Q250.93 100.92 246.94 95.88Q242.96 90.84 242.96 83.93Q242.96 78.27 245.50 74Q248.05 69.72 252.66 67.37Q257.26 65.02 263.31 65.02Q269.46 65.02 274.11 67.37Q278.77 69.72 281.36 73.95Q283.95 78.17 283.95 83.74L274.54 83.74Q274.54 79.13 271.42 76.25Q268.30 73.37 263.31 73.37Q258.32 73.37 255.30 76.25Q252.27 79.13 252.27 83.74Q252.27 87.48 254.29 90.03Q256.30 92.57 259.95 93.63L270.61 96.51Q277.81 98.43 281.84 103.85Q285.87 109.28 285.87 116.76Q285.87 122.91 283.18 127.47Q280.50 132.03 275.55 134.52Q270.61 137.02 263.98 137.02M342.51 136.06L301.71 136.06L301.71 65.98L342.51 65.98L342.51 74.52L311.12 74.52L311.12 95.36L339.15 95.36L339.15 103.61L311.12 103.61L311.12 127.52L342.51 127.52L342.51 136.06M383.60 136.06L374.10 136.06L374.10 74.62L355.09 74.62L355.09 65.98L402.51 65.98L402.51 74.62L383.60 74.62L383.60 136.06M436.40 137.02Q426.51 137.02 421.18 131.55Q415.86 126.08 415.86 116.67L415.86 65.98L425.36 65.98L425.36 116.67Q425.36 122.24 428.10 125.40Q430.83 128.57 436.40 128.57Q441.87 128.57 444.70 125.40Q447.54 122.24 447.54 116.67L447.54 65.98L457.04 65.98L457.04 116.67Q457.04 126.17 451.71 131.60Q446.38 137.02 436.40 137.02M551.98 137.02Q542.29 137.02 536.58 131.60Q530.86 126.17 530.86 116.67L530.86 85.28Q530.86 75.87 536.58 70.44Q542.29 65.02 551.98 65.02Q561.58 65.02 567.30 70.49Q573.01 75.96 573.01 85.28L563.50 85.28Q563.50 79.61 560.43 76.54Q557.36 73.47 551.98 73.47Q546.51 73.47 543.44 76.54Q540.37 79.61 540.37 85.28L540.37 116.67Q540.37 122.43 543.44 125.50Q546.51 128.57 551.98 128.57Q557.36 128.57 560.43 125.50Q563.50 122.43 563.50 116.67L563.50 107.55L549.87 107.55L549.87 99.10L573.01 99.10L573.01 116.67Q573.01 126.08 567.30 131.55Q561.58 137.02 551.98 137.02M609.20 137.02Q599.60 137.02 594.03 131.45Q588.46 125.88 588.46 115.71L588.46 86.24Q588.46 76.16 594.03 70.59Q599.60 65.02 609.20 65.02Q618.80 65.02 624.37 70.54Q629.94 76.06 629.94 86.24L629.94 115.71Q629.94 125.88 624.37 131.45Q618.80 137.02 609.20 137.02M609.20 128.57Q614.58 128.57 617.50 125.50Q620.43 122.43 620.43 116.67L620.43 85.28Q620.43 79.61 617.55 76.54Q614.67 73.47 609.20 73.47Q603.73 73.47 600.85 76.54Q597.97 79.61 597.97 85.28L597.97 116.67Q597.97 122.43 600.90 125.50Q603.82 128.57 609.20 128.57M673.14 136.06L660.37 136.06L642.42 65.98L652.21 65.98L663.82 113.21Q664.98 117.72 665.79 121.90Q666.61 126.08 666.99 128.28Q667.28 126.08 668.19 121.85Q669.10 117.63 670.16 113.12L681.39 65.98L691.18 65.98L673.14 136.06M782.38 137.02Q772.69 137.02 766.98 131.60Q761.26 126.17 761.26 116.67L761.26 85.28Q761.26 75.87 766.98 70.44Q772.69 65.02 782.38 65.02Q791.98 65.02 797.70 70.49Q803.41 75.96 803.41 85.28L793.90 85.28Q793.90 79.61 790.83 76.54Q787.76 73.47 782.38 73.47Q776.91 73.47 773.84 76.54Q770.77 79.61 770.77 85.28L770.77 116.67Q770.77 122.43 773.84 125.50Q776.91 128.57 782.38 128.57Q787.76 128.57 790.83 125.50Q793.90 122.43 793.90 116.67L793.90 107.55L780.27 107.55L780.27 99.10L803.41 99.10L803.41 116.67Q803.41 126.08 797.70 131.55Q791.98 137.02 782.38 137.02M839.60 137.02Q829.71 137.02 824.38 131.55Q819.06 126.08 819.06 116.67L819.06 65.98L828.56 65.98L828.56 116.67Q828.56 122.24 831.30 125.40Q834.03 128.57 839.60 128.57Q845.07 128.57 847.90 125.40Q850.74 122.24 850.74 116.67L850.74 65.98L860.24 65.98L860.24 116.67Q860.24 126.17 854.91 131.60Q849.58 137.02 839.60 137.02M894.32 137.02Q884.05 137.02 878.19 131.31Q872.34 125.60 872.34 115.71L881.84 115.71Q881.84 121.85 885.15 125.21Q888.46 128.57 894.32 128.57Q900.18 128.57 903.49 125.21Q906.80 121.85 906.80 115.80L906.80 65.98L916.30 65.98L916.30 115.80Q916.30 125.60 910.40 131.31Q904.50 137.02 894.32 137.02M940.11 136.06L930.42 136.06L948.56 65.98L961.14 65.98L979.18 136.06L969.49 136.06L965.07 117.82L944.53 117.82L940.11 136.06M951.54 88.92L946.45 109.95L963.15 109.95L958.16 89.02Q956.72 83.26 955.86 79.23Q954.99 75.20 954.80 73.76Q954.61 75.20 953.74 79.23Q952.88 83.26 951.54 88.92M1001.55 136.06L992.14 136.06L992.14 65.98L1013.84 65.98Q1020.27 65.98 1025.07 68.52Q1029.87 71.07 1032.56 75.63Q1035.25 80.19 1035.25 86.33Q1035.25 93.44 1031.65 98.52Q1028.05 103.61 1022.10 105.72L1036.21 136.06L1025.74 136.06L1012.40 106.78L1001.55 106.78L1001.55 136.06M1001.55 74.43L1001.55 98.33L1013.84 98.33Q1019.22 98.33 1022.34 95.07Q1025.46 91.80 1025.46 86.43Q1025.46 80.96 1022.29 77.69Q1019.12 74.43 1013.84 74.43L1001.55 74.43M1055.31 136.06L1045.62 136.06L1063.76 65.98L1076.34 65.98L1094.38 136.06L1084.69 136.06L1080.27 117.82L1059.73 117.82L1055.31 136.06M1066.74 88.92L1061.65 109.95L1078.35 109.95L1073.36 89.02Q1071.92 83.26 1071.06 79.23Q1070.19 75.20 NaN 73.76Q1069.81 75.20 1068.94 79.23Q1068.08 83.26 1066.74 88.92M1132.40 136.06L1122.90 136.06L1122.90 74.62L1103.89 74.62L1103.89 65.98L1151.31 65.98L1151.31 74.62L1132.40 74.62L1132.40 136.06M1191.54 136.06L1178.77 136.06L1160.82 65.98L1170.61 65.98L1182.22 113.21Q1183.38 117.72 1184.19 121.90Q1185.01 126.08 1185.39 128.28Q1185.68 126.08 1186.59 121.85Q1187.50 117.63 1188.56 113.12L1199.79 65.98L1209.58 65.98L1191.54 136.06M1261.90 136.06L1223.70 136.06L1223.70 127.42L1238 127.42L1238 74.62L1223.70 74.62L1223.70 65.98L1261.90 65.98L1261.90 74.62L1247.60 74.62L1247.60 127.42L1261.90 127.42L1261.90 136.06M1298.86 136.06L1280.05 136.06L1280.05 65.98L1298.86 65.98Q1305.68 65.98 1310.72 68.62Q1315.76 71.26 1318.54 76.01Q1321.33 80.76 1321.33 87.20L1321.33 114.75Q1321.33 121.18 1318.54 125.98Q1315.76 130.78 1310.72 133.42Q1305.68 136.06 1298.86 136.06M1289.55 74.43L1289.55 127.61L1298.86 127.61Q1304.91 127.61 1308.37 124.16Q1311.82 120.70 1311.82 114.75L1311.82 87.20Q1311.82 81.24 1308.37 77.84Q1304.91 74.43 1298.86 74.43L1289.55 74.43M1362.80 136.06L1353.30 136.06L1353.30 110.04L1332.27 65.98L1342.35 65.98L1355.31 93.63Q1356.46 96.12 1357.18 98.14Q1357.90 100.16 1358.10 101.02Q1358.38 100.16 1359.10 98.14Q1359.82 96.12 1361.07 93.63L1373.94 65.98L1383.73 65.98L1362.80 110.04L1362.80 136.06M1400.91 136.06L1391.22 136.06L1409.36 65.98L1421.94 65.98L1439.98 136.06L1430.29 136.06L1425.87 117.82L1405.33 117.82L1400.91 136.06M1412.34 88.92L1407.25 109.95L1423.95 109.95L1418.96 89.02Q1417.52 83.26 1416.66 79.23Q1415.79 75.20 1415.60 73.76Q1415.41 75.20 1414.54 79.23Q1413.68 83.26 1412.34 88.92M1462.35 136.06L1452.85 136.06L1452.85 65.98L1475.60 65.98Q1482.32 65.98 1487.22 68.57Q1492.11 71.16 1494.80 75.82Q1497.49 80.48 1497.49 86.91Q1497.49 93.24 1494.80 97.90Q1492.11 102.56 1487.17 105.15Q1482.22 107.74 1475.60 107.74L1462.35 107.74L1462.35 136.06M1462.35 74.43L1462.35 99.29L1475.60 99.29Q1481.17 99.29 1484.43 95.88Q1487.70 92.48 1487.70 86.91Q1487.70 81.24 1484.43 77.84Q1481.17 74.43 1475.60 74.43L1462.35 74.43M1549.90 136.06L1511.70 136.06L1511.70 127.42L1526 127.42L1526 74.62L1511.70 74.62L1511.70 65.98L1549.90 65.98L1549.90 74.62L1535.60 74.62L1535.60 127.42L1549.90 127.42L1549.90 136.06M1593.20 136.06L1583.70 136.06L1583.70 74.62L1564.69 74.62L1564.69 65.98L1612.11 65.98L1612.11 74.62L1593.20 74.62L1593.20 136.06M1635.25 136.06L1625.74 136.06L1625.74 65.98L1635.25 65.98L1635.25 95.55L1656.75 95.55L1656.75 65.98L1666.26 65.98L1666.26 136.06L1656.75 136.06L1656.75 104.19L1635.25 104.19" fill="url(#paint2_linear_0_1)"/>
<g id="Group 1">
<rect id="Rectangle 1" x="26" y="168" width="12" height="184" rx="5" fill="url(#paint3_linear_0_1)" fill-opacity="0.9"/>
</g>
<g id="Group 1_2">
<rect id="Rectangle 2" x="26" y="38" width="12" height="119" rx="5" fill="url(#paint4_linear_0_1)" fill-opacity="0.9"/>
</g>
<ellipse id="Ellipse 1" cx="148.5" cy="573" rx="215.5" ry="214" fill="url(#paint5_linear_0_1)" fill-opacity="0.4"/>
<rect id="Rectangle 3" x="1229" y="48" width="300" height="300" rx="25" fill="#FFFBFB" fill-opacity="0.9"/>
<g id="placeholder-logo"><g transform="translate(1229,48) translate(0.0,60.0) scale(1.2000)"><g fill="#666666">
  <path d="m88.05,27.65c-3.15,4 -3.2,51.2 -0.05,54.35c2.75,2.75 71.7,3.15 74.45,0.45c2.85,-2.9 2.3,-53.85 -0.65,-55.9c-1.95,-1.35 -7.15,-1.55 -36.95,-1.55l-34.7,0l-2.1,2.65zm69.45,3.35c0.65,0 1,8.6 1,23.75l0,23.75l-33,0l-33,0l-0.25,-23c-0.15,-12.6 -0.1,-23.45 0.15,-24.1c0.35,-0.85 8.9,-1.05 32.25,-0.75c17.55,0.2 32.3,0.35 32.85,0.35z"/>
  <path d="m99.15,37.3c-6.85,7.35 4.25,17.35 11.4,10.25c1.35,-1.35 2.45,-3.65 2.45,-5.05c0,-6.45 -9.35,-9.95 -13.85,-5.2z"/>
  <path d="m135,42.5c-0.7,0.85 -5.25,5.15 -10.1,9.6l-8.85,8.1l-3.2,-3.2l-3.15,-3.15l-6.35,6.3c-5.55,5.5 -6.35,6.75 -6.35,10.05l0,3.8l28.5,0l28.5,0l0,-8.6l0,-8.55l-8.15,-7.7c-9.35,-8.85 -9.15,-8.7 -10.85,-6.65zm7.25,15.2c0.95,0.9 1.75,2.9 1.75,4.45c6.35,-5.05 4.75,-7.15 4.9,-11.55c0.95,0 0,0 0,0l-6.65,7.1z"/>
  <path d="m53.65,110.75c0.1,4.8 0.45,8.65 0.75,8.5c0.35,-0.15 1.3,-0.25 2.1,-0.25c1.1,0 1.5,-1.2 1.5,-4.75l0,-4.75l3.25,5c4.9,7.5 6.2,6.75 6.55,-3.75c0.25,-8.15 0.15,-8.75 -1.7,-8.75c-1.65,0 -2.05,0.8 -2.3,4.75l-0.3,4.75l-2.8,-4.75c-4.85,-8.25 -7.25,-6.9 -7.05,4z"/>
  <path d="m91,108.9c0,9.65 0.3,10.1 6.1,10.1c5.8,0 7.15,-2.65 1.65,-3.2l-3.25,-0.3l-0.3,-6.75c-0.25,-5.95 -0.55,-6.75 -2.25,-6.75c-1.75,0 -1.95,0.7 -1.95,6.9z"/>
  <path d="m151,102.45c0,0.25 1,2.15 2.25,4.2c1.2,2.1 2.45,5.8 2.75,8.25c0.65,5.9 4,6.95 4,1.25c0.05,-2.1 1.25,-5.85 2.95,-8.9l2.9,-5.25l-2.5,0c-1.8,0 -2.8,0.85 -3.75,3.1l-1.3,3.05l-1.25,-3.05c-1.1,-2.6 -6.05,-4.8 -6.05,-2.65z"/>
  <path d="m191,107.45c0,9.05 3.4,8.85 4.25,-0.2c0.45,-5 0.35,-5.25 -1.9,-5.25c-2.2,0 -2.35,0.4 -2.35,5.45z"/>
  <path d="m180.8,104.75c-1.3,5.35 0.65,13.6 3.45,14.35c2.3,0.6 2.75,0.4 2.75,-1.2c0,-1.05 -0.45,-1.9 -1,-1.9c-0.55,0 -1,-1.6 -1,-3.5c0,-1.95 0.45,-3.5 1,-3.5c0.55,0 1,-0.7 1,-1.5c0,-0.85 -0.45,-1.5 -1,-1.5c-0.55,0 -1,-0.7 -1,-1.5c0,-2.1 -3.65,-1.9 -4.2,0.25z"/>
  <path d="m71.55,106.55c-2.2,2.25 -2.05,9.7 0.3,11.8c4.5,4.1 10.15,0.75 10.15,-6.1c0,-4.85 -2,-7.25 -6,-7.25c-1.55,0 -3.55,0.7 -4.45,1.55zm6.25,5.8c0.25,3.05 0,3.65 -1.6,3.65c-2.3,0 -3.25,-2.65 -2.05,-5.85c1.25,-3.35 3.3,-2.1 3.65,2.2z"/>
  <path d="m105.75,106.1c-2.5,1.45 -2.45,9.95 0.1,12.25c4.3,3.9 10.15,0.35 10.15,-6.2c0,-6 -5.15,-9.05 -10.25,-6.05zm6.05,6.25c0.25,3.05 0,3.65 -1.6,3.65c-2.3,0 -3.25,-2.65 -2.05,-5.85c1.25,-3.35 3.3,-2.1 3.65,2.2z"/>
  <path d="m119.2,106.2c-3.8,3.8 -0.4,12.55 4.4,11.35c1.9,-0.45 2.45,-0.3 2.15,0.65c-0.25,0.7 -1.55,1.2 -2.85,1.1c-4.05,-0.3 -5.35,0.45 -3.85,2.25c0.85,1.05 2.6,1.45 5.35,1.25l4.1,-0.3l0.3,-8.75l0.3,-8.75l-4.35,0c-2.4,0 -4.9,0.55 -5.55,1.2zm6.6,4.45c0.4,2.85 -2.15,4.85 -3.75,2.95c-0.9,-1.1 -0.9,-2 -0.05,-3.6c1.35,-2.5 3.4,-2.15 3.8,0.65z"/>
  <path d="m133.55,106.55c-2.2,2.25 -2.05,9.7 0.3,11.8c4.5,4.1 10.15,0.75 10.15,-6.1c0,-4.85 -2,-7.25 -6,-7.25c-1.55,0 -3.55,0.7 -4.45,1.55zm6.25,5.8c0.25,3.05 0,3.65 -1.6,3.65c-2.3,0 -3.25,-2.65 -2.05,-5.85c1.25,-3.35 3.3,-2.1 3.65,2.2z"/>
  <path d="m167.65,106.85c-3.9,4.3 -0.75,13.15 4.7,13.15c2.4,0 5.65,-2.75 5.65,-4.85c0,-1.4 -2.65,-1.55 -3.5,-0.15c-0.95,1.55 -4.5,1.15 -4.5,-0.5c0,-1.1 1.1,-1.5 4,-1.5c3.15,0 4,-0.35 4,-1.8c0,-5.3 -6.85,-8.25 -10.35,-4.35z"/>
  <path d="m191,117.5c0,2.15 0.4,2.6 2.25,2.3c1.5,-0.2 2.25,-1 2.25,-2.3c0,-1.3 -0.75,-2.1 -2.25,-2.3c-1.85,-0.3 -2.25,0.15 -2.25,2.3z"/>
 </g></g></g>
</g>
<defs>
<linearGradient id="paint0_linear_0_1" x1="0" y1="198" x2="1584" y2="198" gradientUnits="userSpaceOnUse">
<stop stop-color="#3D052C"/>
<stop offset="1"/>
</linearGradient>
<linearGradient id="paint1_linear_0_1" x1="323" y1="-224" x2="323" y2="352" gradientUnits="userSpaceOnUse">
<stop stop-color="#28F6F2" stop-opacity="0.4"/>
<stop offset="1" stop-color="#17908E" stop-opacity="0.7"/>
</linearGradient>
<linearGradient id="paint2_linear_0_1" x1="148.5" y1="38" x2="148.5" y2="140" gradientUnits="userSpaceOnUse">
<stop stop-color="white"/>
<stop offset="1" stop-color="#999999"/>
</linearGradient>
<linearGradient id="paint3_linear_0_1" x1="38" y1="260" x2="26" y2="260" gradientUnits="userSpaceOnUse">
<stop stop-color="#D9D9D9"/>
<stop offset="1" stop-color="#737373"/>
</linearGradient>
<linearGradient id="paint4_linear_0_1" x1="38" y1="97.5" x2="26" y2="97.5" gradientUnits="userSpaceOnUse">
<stop stop-color="#D9D9D9"/>
<stop offset="1" stop-color="#737373"/>
</linearGradient>
<linearGradient id="paint5_linear_0_1" x1="27.5" y1="434.5" x2="148.5" y2="787" gradientUnits="userSpaceOnUse">
<stop stop-color="#2E21BC"/>
<stop offset="1" stop-color="#150F56"/>
</linearGradient>
<clipPath id="clip0_0_1">
<rect width="1584" height="396" fill="white"/>
</clipPath>
</defs>
</svg>
